<svg width="236" height="89" viewBox="0 0 236 89" fill="none" xmlns="http://www.w3.org/2000/svg">
<g id="Group 143726542">
<g id="Black">
<g id="Vector" filter="url(#filter0_d_56_320)">
<path d="M13 38.4199V67.4199H115.503H218.006L217.933 38.4929L217.824 9.60231L115.43 9.49288L13 9.41992V38.4199ZM97.0817 38.4199V64.6841L56.3358 64.7935L15.5535 64.8665L15.517 47.1017C15.517 37.2891 15.517 28.4614 15.4805 27.4765C15.4805 26.4551 15.4805 22.5885 15.517 18.7948L15.5535 11.9734L56.3358 12.0463L97.0817 12.1558V38.4199ZM114.409 28.3885V35.3193H121.34H128.27V28.3885V21.4577H132.648H137.025V38.4199V55.3822H132.648H128.27L128.197 48.8891L128.088 42.4325H121.34H114.591L114.482 48.8891L114.409 55.3822H110.031H105.654V38.4199V21.4577H110.031H114.409V28.3885ZM163.289 22.479C169.6 24.5583 173.686 29.3369 174.634 35.757C175.728 43.0891 172.445 49.8375 166.208 53.157C162.742 55.0174 160.189 55.3822 150.631 55.3822H142.132V38.3834V21.3847L151.543 21.5306C159.86 21.6765 161.174 21.786 163.289 22.479ZM197.907 21.8589C202.722 22.625 206.37 25.3608 207.647 29.191C208.558 31.9633 208.23 37.1067 206.99 39.5507C206.078 41.2652 203.743 43.7822 202.686 44.147C202.394 44.2199 203.379 46.0803 205.494 49.3633C207.282 52.1721 208.887 54.6891 209.033 54.908C209.252 55.2728 208.194 55.3822 204.254 55.3822H199.22L196.849 50.713L194.441 46.0803H191.195H187.912L187.802 50.713L187.693 55.3822H183.352H178.975V38.4199V21.4577H187.292C191.852 21.4577 196.63 21.64 197.907 21.8589Z" fill="white"/>
</g>
<path id="Vector_2" d="M33.3548 30.5042L27.5913 39.1495V42.7243V46.2627H35.9448C43.2039 46.2627 44.3347 46.3356 44.5171 46.8463C44.6265 47.1746 44.736 49.1444 44.736 51.2237V55.0174H48.2014H51.6668V44.9859V34.9545H48.2014H44.736V36.9608V38.9671H40.5045C37.258 38.9671 36.346 38.8576 36.5649 38.4929C36.7108 38.274 39.1548 34.5897 42.0001 30.3948C44.8454 26.1633 47.2894 22.5155 47.4353 22.2602C47.6542 21.9319 46.7423 21.8224 43.3863 21.8224H39.0819L33.3548 30.5042Z" fill="white"/>
<path id="Vector_3" d="M55.3145 38.4199V55.0174H58.9623H62.6101V49.3633C62.6101 46.2627 62.7195 43.7092 62.9019 43.7092C63.0478 43.7092 65.7107 46.2627 68.8113 49.3633L74.4654 55.0174H79.3899H84.3145L76.1799 46.8828C71.7295 42.4325 68.0817 38.6753 68.0817 38.5293C68.0817 38.4199 71.8025 34.5897 76.3258 30.0665L84.5333 21.8224H79.4994H74.4654L68.556 27.7319L62.6101 33.6778V27.7319V21.8224H58.9623H55.3145V38.4199Z" fill="white"/>
<path id="Vector_4" d="M151.251 38.4562V48.1594L155.775 48.0135C160.152 47.904 160.371 47.8676 161.867 46.8097C162.742 46.1896 163.873 44.8764 164.529 43.7091C165.551 41.8852 165.66 41.411 165.66 38.6022C165.66 35.8663 165.514 35.2827 164.566 33.5317C162.596 29.9569 160.225 28.7896 154.826 28.7531H151.251V38.4562Z" fill="white"/>
<path id="Vector_5" d="M187.73 33.8602V38.9671H191.743C197.834 38.9671 199.439 38.0187 199.695 34.2615C200.023 29.8841 198.418 28.7533 191.961 28.7533H187.73V33.8602Z" fill="white"/>
</g>
</g>
<defs>
<filter id="filter0_d_56_320" x="0" y="0.419922" width="235.006" height="88" filterUnits="userSpaceOnUse" color-interpolation-filters="sRGB">
<feFlood flood-opacity="0" result="BackgroundImageFix"/>
<feColorMatrix in="SourceAlpha" type="matrix" values="0 0 0 0 0 0 0 0 0 0 0 0 0 0 0 0 0 0 127 0" result="hardAlpha"/>
<feOffset dx="2" dy="6"/>
<feGaussianBlur stdDeviation="7.5"/>
<feComposite in2="hardAlpha" operator="out"/>
<feColorMatrix type="matrix" values="0 0 0 0 0 0 0 0 0 0 0 0 0 0 0 0 0 0 0.25 0"/>
<feBlend mode="normal" in2="BackgroundImageFix" result="effect1_dropShadow_56_320"/>
<feBlend mode="normal" in="SourceGraphic" in2="effect1_dropShadow_56_320" result="shape"/>
</filter>
</defs>
</svg>
