<svg width="716" height="139" viewBox="0 0 716 139" fill="none" xmlns="http://www.w3.org/2000/svg">
<g filter="url(#filter0_f_282_820)">
<path d="M47.6833 82.5343C41.2087 82.5343 35.2573 81.0301 29.829 78.0217C24.4662 75.0132 20.1825 70.8276 16.9779 65.4648C13.8387 60.0366 12.269 53.9543 12.269 47.2181C12.269 40.4819 13.8387 34.4323 16.9779 29.0695C20.1825 23.7067 24.4662 19.521 29.829 16.5126C35.2573 13.5042 41.2087 12 47.6833 12C54.158 12 60.0767 13.5042 65.4395 16.5126C70.8678 19.521 75.1188 23.7067 78.1926 29.0695C81.3318 34.4323 82.9014 40.4819 82.9014 47.2181C82.9014 53.9543 81.3318 60.0366 78.1926 65.4648C75.0534 70.8276 70.8024 75.0132 65.4395 78.0217C60.0767 81.0301 54.158 82.5343 47.6833 82.5343ZM47.6833 67.2306C53.177 67.2306 57.5588 65.3994 60.8288 61.737C64.1642 58.0746 65.8319 53.2349 65.8319 47.2181C65.8319 41.1359 64.1642 36.2962 60.8288 32.6992C57.5588 29.0368 53.177 27.2056 47.6833 27.2056C42.1243 27.2056 37.6771 29.0041 34.3417 32.6011C31.0716 36.1981 29.4366 41.0705 29.4366 47.2181C29.4366 53.3003 31.0716 58.1727 34.3417 61.8351C37.6771 65.4321 42.1243 67.2306 47.6833 67.2306ZM163.651 81.8476H146.876L118.819 39.37V81.8476H102.044V12.981H118.819L146.876 55.6547V12.981H163.651V81.8476ZM202.396 68.8983H243.991V81.8476H185.621V12.981H202.396V68.8983Z" stroke="#0070FE" stroke-width="3.92402"/>
</g>
<path d="M47.6833 82.5343C41.2087 82.5343 35.2573 81.0301 29.829 78.0217C24.4662 75.0132 20.1825 70.8276 16.9779 65.4648C13.8387 60.0366 12.269 53.9543 12.269 47.2181C12.269 40.4819 13.8387 34.4323 16.9779 29.0695C20.1825 23.7067 24.4662 19.521 29.829 16.5126C35.2573 13.5042 41.2087 12 47.6833 12C54.158 12 60.0767 13.5042 65.4395 16.5126C70.8678 19.521 75.1188 23.7067 78.1926 29.0695C81.3318 34.4323 82.9014 40.4819 82.9014 47.2181C82.9014 53.9543 81.3318 60.0366 78.1926 65.4648C75.0534 70.8276 70.8024 75.0132 65.4395 78.0217C60.0767 81.0301 54.158 82.5343 47.6833 82.5343ZM47.6833 67.2306C53.177 67.2306 57.5588 65.3994 60.8288 61.737C64.1642 58.0746 65.8319 53.2349 65.8319 47.2181C65.8319 41.1359 64.1642 36.2962 60.8288 32.6992C57.5588 29.0368 53.177 27.2056 47.6833 27.2056C42.1243 27.2056 37.6771 29.0041 34.3417 32.6011C31.0716 36.1981 29.4366 41.0705 29.4366 47.2181C29.4366 53.3003 31.0716 58.1727 34.3417 61.8351C37.6771 65.4321 42.1243 67.2306 47.6833 67.2306ZM163.651 81.8476H146.876L118.819 39.37V81.8476H102.044V12.981H118.819L146.876 55.6547V12.981H163.651V81.8476ZM202.396 68.8983H243.991V81.8476H185.621V12.981H202.396V68.8983Z" stroke="#0070FE" stroke-width="3.92402"/>
<g filter="url(#filter1_f_282_820)">
<path d="M382.602 47.051C386.591 47.9012 389.796 49.8959 392.216 53.0352C394.636 56.109 395.846 59.6406 395.846 63.63C395.846 69.3853 393.818 73.9633 389.763 77.3641C385.774 80.6995 380.182 82.3672 372.988 82.3672H340.909V13.5006H371.909C378.907 13.5006 384.368 15.1029 388.292 18.3076C392.281 21.5122 394.276 25.8613 394.276 31.3549C394.276 35.4098 393.197 38.7779 391.039 41.4593C388.946 44.1407 386.134 46.0046 382.602 47.051ZM357.684 41.3612H368.672C371.418 41.3612 373.511 40.7726 374.95 39.5954C376.454 38.3528 377.206 36.5543 377.206 34.1998C377.206 31.8454 376.454 30.0469 374.95 28.8043C373.511 27.5617 371.418 26.9404 368.672 26.9404H357.684V41.3612ZM370.045 68.8293C372.857 68.8293 375.016 68.208 376.52 66.9654C378.089 65.6574 378.874 63.7935 378.874 61.3737C378.874 58.9539 378.057 57.0573 376.422 55.6839C374.852 54.3105 372.661 53.6238 369.849 53.6238H357.684V68.8293H370.045ZM432.16 26.9404V40.8707H454.625V53.82H432.16V68.9274H457.568V82.3672H415.385V13.5006H457.568V26.9404H432.16ZM521.139 70.2028H495.437L491.317 82.3672H473.757L498.674 13.5006H518.098L543.016 82.3672H525.259L521.139 70.2028ZM516.823 57.2535L508.288 32.0416L499.851 57.2535H516.823ZM557.564 47.8358C557.564 41.0342 559.036 34.9847 561.979 29.6872C564.922 24.3244 569.009 20.1715 574.241 17.2284C579.539 14.22 585.523 12.7158 592.194 12.7158C600.369 12.7158 607.367 14.874 613.187 19.1905C619.008 23.5069 622.899 29.3929 624.861 36.8486H606.418C605.045 33.9709 603.083 31.78 600.532 30.2758C598.047 28.7716 595.202 28.0195 591.998 28.0195C586.831 28.0195 582.645 29.818 579.441 33.415C576.236 37.0121 574.634 41.819 574.634 47.8358C574.634 53.8527 576.236 58.6596 579.441 62.2566C582.645 65.8536 586.831 67.6521 591.998 67.6521C595.202 67.6521 598.047 66.9 600.532 65.3958C603.083 63.8916 605.045 61.7007 606.418 58.8231H624.861C622.899 66.2787 619.008 72.1648 613.187 76.4812C607.367 80.7322 600.369 82.8577 592.194 82.8577C585.523 82.8577 579.539 81.3862 574.241 78.4432C569.009 75.4348 564.922 71.2819 561.979 65.9844C559.036 60.687 557.564 54.6375 557.564 47.8358ZM704.589 13.5006V126.686H12.335V93.1278H687.814V54.0162H661.72V82.3672H644.944V13.5006H661.72V40.4783H687.814V13.5006H704.589Z" stroke="#0070FE" stroke-width="3.92402"/>
</g>
<path d="M382.602 47.051C386.591 47.9012 389.796 49.8959 392.216 53.0352C394.635 56.109 395.845 59.6406 395.845 63.63C395.845 69.3853 393.818 73.9633 389.763 77.3641C385.774 80.6995 380.182 82.3672 372.988 82.3672H340.909V13.5006H371.909C378.907 13.5006 384.367 15.1029 388.291 18.3076C392.281 21.5122 394.276 25.8613 394.276 31.3549C394.276 35.4098 393.197 38.7779 391.038 41.4593C388.945 44.1407 386.133 46.0046 382.602 47.051ZM357.684 41.3612H368.671C371.418 41.3612 373.511 40.7726 374.95 39.5954C376.454 38.3528 377.206 36.5543 377.206 34.1998C377.206 31.8454 376.454 30.0469 374.95 28.8043C373.511 27.5617 371.418 26.9404 368.671 26.9404H357.684V41.3612ZM370.045 68.8294C372.857 68.8294 375.015 68.2081 376.519 66.9654C378.089 65.6574 378.874 63.7935 378.874 61.3737C378.874 58.9539 378.056 57.0573 376.421 55.6839C374.852 54.3105 372.661 53.6238 369.849 53.6238H357.684V68.8294H370.045ZM432.16 26.9404V40.8707H454.625V53.82H432.16V68.9275H457.568V82.3672H415.385V13.5006H457.568V26.9404H432.16ZM521.139 70.2028H495.436L491.316 82.3672H473.756L498.674 13.5006H518.098L543.015 82.3672H525.259L521.139 70.2028ZM516.822 57.2535L508.288 32.0416L499.851 57.2535H516.822ZM557.564 47.8358C557.564 41.0342 559.035 34.9847 561.978 29.6872C564.922 24.3244 569.009 20.1715 574.241 17.2284C579.539 14.22 585.523 12.7158 592.193 12.7158C600.369 12.7158 607.366 14.874 613.187 19.1905C619.008 23.5069 622.899 29.3929 624.861 36.8486H606.418C605.045 33.9709 603.083 31.78 600.532 30.2758C598.047 28.7716 595.202 28.0195 591.997 28.0195C586.831 28.0195 582.645 29.818 579.44 33.415C576.236 37.0121 574.633 41.819 574.633 47.8358C574.633 53.8527 576.236 58.6596 579.44 62.2566C582.645 65.8536 586.831 67.6521 591.997 67.6521C595.202 67.6521 598.047 66.9 600.532 65.3958C603.083 63.8916 605.045 61.7007 606.418 58.8231H624.861C622.899 66.2787 619.008 72.1648 613.187 76.4812C607.366 80.7322 600.369 82.8577 592.193 82.8577C585.523 82.8577 579.539 81.3862 574.241 78.4432C569.009 75.4348 564.922 71.2819 561.978 65.9844C559.035 60.687 557.564 54.6375 557.564 47.8358ZM704.589 13.5006V119.955C704.589 123.846 701.435 127 697.544 127H12.2271V93.2271H684.683C686.412 93.2271 687.814 91.8252 687.814 90.0959V54.0162H661.719V82.3672H644.944V13.5006H661.719V40.4783H687.814V13.5006H704.589Z" stroke="#0070FE" stroke-width="3.92402"/>
<path d="M200.591 103.04V111.68C200.591 112.627 200.838 113.353 201.331 113.86C201.825 114.353 202.518 114.6 203.411 114.6C204.318 114.6 205.018 114.353 205.511 113.86C206.005 113.353 206.251 112.627 206.251 111.68V103.04H209.071V111.66C209.071 112.847 208.811 113.853 208.291 114.68C207.785 115.493 207.098 116.107 206.231 116.52C205.378 116.933 204.425 117.14 203.371 117.14C202.331 117.14 201.385 116.933 200.531 116.52C199.691 116.107 199.025 115.493 198.531 114.68C198.038 113.853 197.791 112.847 197.791 111.66V103.04H200.591ZM229.716 117H226.916L220.576 107.42V117H217.776V103.02H220.576L226.916 112.62V103.02H229.716V117ZM247.104 103.04V105.3H241.284V108.88H245.744V111.1H241.284V117H238.484V103.04H247.104ZM257.889 103.04V117H255.089V103.04H257.889ZM269.455 114.78H274.055V117H266.655V103.04H269.455V114.78ZM291.335 103.04V105.3H287.615V117H284.815V105.3H281.095V103.04H291.335ZM302.178 105.3V108.8H306.878V111.02H302.178V114.72H307.478V117H299.378V103.02H307.478V105.3H302.178ZM323.223 117L320.143 111.56H318.823V117H316.023V103.04H321.263C322.343 103.04 323.263 103.233 324.023 103.62C324.783 103.993 325.349 104.507 325.723 105.16C326.109 105.8 326.303 106.52 326.303 107.32C326.303 108.24 326.036 109.073 325.503 109.82C324.969 110.553 324.176 111.06 323.123 111.34L326.463 117H323.223ZM318.823 109.46H321.163C321.923 109.46 322.489 109.28 322.863 108.92C323.236 108.547 323.423 108.033 323.423 107.38C323.423 106.74 323.236 106.247 322.863 105.9C322.489 105.54 321.923 105.36 321.163 105.36H318.823V109.46ZM337.635 105.3V108.8H342.335V111.02H337.635V114.72H342.935V117H334.835V103.02H342.935V105.3H337.635ZM356.36 103.04C357.826 103.04 359.113 103.327 360.22 103.9C361.34 104.473 362.2 105.293 362.8 106.36C363.413 107.413 363.72 108.64 363.72 110.04C363.72 111.44 363.413 112.667 362.8 113.72C362.2 114.76 361.34 115.567 360.22 116.14C359.113 116.713 357.826 117 356.36 117H351.48V103.04H356.36ZM356.26 114.62C357.726 114.62 358.86 114.22 359.66 113.42C360.46 112.62 360.86 111.493 360.86 110.04C360.86 108.587 360.46 107.453 359.66 106.64C358.86 105.813 357.726 105.4 356.26 105.4H354.28V114.62H356.26ZM392.761 107.36C392.761 108.107 392.581 108.807 392.221 109.46C391.875 110.113 391.321 110.64 390.561 111.04C389.815 111.44 388.868 111.64 387.721 111.64H385.381V117H382.581V103.04H387.721C388.801 103.04 389.721 103.227 390.481 103.6C391.241 103.973 391.808 104.487 392.181 105.14C392.568 105.793 392.761 106.533 392.761 107.36ZM387.601 109.38C388.375 109.38 388.948 109.207 389.321 108.86C389.695 108.5 389.881 108 389.881 107.36C389.881 106 389.121 105.32 387.601 105.32H385.381V109.38H387.601ZM409.309 114.34H403.749L402.829 117H399.889L404.909 103.02H408.169L413.189 117H410.229L409.309 114.34ZM408.549 112.1L406.529 106.26L404.509 112.1H408.549ZM428.266 117L425.186 111.56H423.866V117H421.066V103.04H426.306C427.386 103.04 428.306 103.233 429.066 103.62C429.826 103.993 430.392 104.507 430.766 105.16C431.152 105.8 431.346 106.52 431.346 107.32C431.346 108.24 431.079 109.073 430.546 109.82C430.012 110.553 429.219 111.06 428.166 111.34L431.506 117H428.266ZM423.866 109.46H426.206C426.966 109.46 427.532 109.28 427.906 108.92C428.279 108.547 428.466 108.033 428.466 107.38C428.466 106.74 428.279 106.247 427.906 105.9C427.532 105.54 426.966 105.36 426.206 105.36H423.866V109.46ZM448.438 114.34H442.878L441.958 117H439.018L444.038 103.02H447.298L452.318 117H449.358L448.438 114.34ZM447.678 112.1L445.658 106.26L443.638 112.1H447.678ZM465.074 103.04C466.541 103.04 467.828 103.327 468.934 103.9C470.054 104.473 470.914 105.293 471.514 106.36C472.128 107.413 472.434 108.64 472.434 110.04C472.434 111.44 472.128 112.667 471.514 113.72C470.914 114.76 470.054 115.567 468.934 116.14C467.828 116.713 466.541 117 465.074 117H460.194V103.04H465.074ZM464.974 114.62C466.441 114.62 467.574 114.22 468.374 113.42C469.174 112.62 469.574 111.493 469.574 110.04C469.574 108.587 469.174 107.453 468.374 106.64C467.574 105.813 466.441 105.4 464.974 105.4H462.994V114.62H464.974ZM483.33 103.04V117H480.53V103.04H483.33ZM496.917 117.14C495.943 117.14 495.063 116.973 494.277 116.64C493.503 116.307 492.89 115.827 492.437 115.2C491.983 114.573 491.75 113.833 491.737 112.98H494.737C494.777 113.553 494.977 114.007 495.337 114.34C495.71 114.673 496.217 114.84 496.857 114.84C497.51 114.84 498.023 114.687 498.397 114.38C498.77 114.06 498.957 113.647 498.957 113.14C498.957 112.727 498.83 112.387 498.577 112.12C498.323 111.853 498.003 111.647 497.617 111.5C497.243 111.34 496.723 111.167 496.057 110.98C495.15 110.713 494.41 110.453 493.837 110.2C493.277 109.933 492.79 109.54 492.377 109.02C491.977 108.487 491.777 107.78 491.777 106.9C491.777 106.073 491.983 105.353 492.397 104.74C492.81 104.127 493.39 103.66 494.137 103.34C494.883 103.007 495.737 102.84 496.697 102.84C498.137 102.84 499.303 103.193 500.197 103.9C501.103 104.593 501.603 105.567 501.697 106.82H498.617C498.59 106.34 498.383 105.947 497.997 105.64C497.623 105.32 497.123 105.16 496.497 105.16C495.95 105.16 495.51 105.3 495.177 105.58C494.857 105.86 494.697 106.267 494.697 106.8C494.697 107.173 494.817 107.487 495.057 107.74C495.31 107.98 495.617 108.18 495.977 108.34C496.35 108.487 496.87 108.66 497.537 108.86C498.443 109.127 499.183 109.393 499.757 109.66C500.33 109.927 500.823 110.327 501.237 110.86C501.65 111.393 501.857 112.093 501.857 112.96C501.857 113.707 501.663 114.4 501.277 115.04C500.89 115.68 500.323 116.193 499.577 116.58C498.83 116.953 497.943 117.14 496.917 117.14ZM513.084 105.3V108.8H517.784V111.02H513.084V114.72H518.384V117H510.284V103.02H518.384V105.3H513.084Z" fill="#B8D7FF"/>
<g filter="url(#filter2_f_282_820)">
<path d="M303.587 13.0012L303.511 11.5032L303.587 13.0012ZM304.794 14.0109L306.15 13.3705L306.145 13.3602L304.794 14.0109ZM302.947 13.4979L304.163 14.3752L304.168 14.369L304.172 14.3628L302.947 13.4979ZM302.144 15.1275L300.751 14.5717L300.749 14.5766L302.144 15.1275ZM299.362 20.0335L298.13 19.1781L298.13 19.1783L299.362 20.0335ZM293.983 28.5791L292.651 27.891L292.649 27.8933L293.983 28.5791ZM289.267 36.4168L290.502 37.2675L290.505 37.2637L289.267 36.4168ZM287.841 38.3391L288.953 39.3465L288.988 39.3081L289.02 39.2674L287.841 38.3391ZM284.021 42.4374L285.108 43.471L285.112 43.4673L284.021 42.4374ZM284.021 42.4381L285.081 43.4988L285.095 43.4854L285.108 43.4717L284.021 42.4381ZM284.02 42.4382L282.96 41.3775L282.945 41.3927L282.93 41.4083L284.02 42.4382ZM282.257 44.3154L283.352 45.3407L283.357 45.3349L282.257 44.3154ZM269.677 53.005L268.283 53.561V53.561L269.677 53.005ZM267.861 49.364L266.603 50.1799L266.606 50.1842L267.861 49.364ZM254.993 35.3895L254.016 36.5275L254.022 36.5325L254.993 35.3895ZM250.995 32.0161L251.955 30.8638L251.944 30.8542L251.932 30.8447L250.995 32.0161ZM250.995 32.016L250.034 33.1682L250.046 33.1779L250.058 33.1873L250.995 32.016ZM249.162 30.4756L248.348 29.2156L246.662 30.3049L248.185 31.6132L249.162 30.4756ZM249.28 30.3998L250.094 31.6598L251.723 30.6069L250.294 29.2948L249.28 30.3998ZM246.861 27.6928L245.389 27.9826L245.438 28.2285L245.564 28.4454L246.861 27.6928ZM246.842 27.5797L245.354 27.7706L245.356 27.7815L245.357 27.7924L246.842 27.5797ZM246.642 27.2979L245.312 27.9907L245.461 28.2778L245.716 28.4777L246.642 27.2979ZM245.464 22.657L246.946 22.4263L246.946 22.4262L245.464 22.657ZM244.507 20.2159L245.556 19.1445L245.551 19.139L245.545 19.1336L244.507 20.2159ZM242.598 19.403L242.663 17.9044L242.657 17.9042L242.598 19.403ZM239.332 20.2619L238.756 18.8771L238.755 18.8772L239.332 20.2619ZM232.616 21.8932L232.545 20.3949L232.545 20.3949L232.616 21.8932ZM229.172 21.9947L229.164 20.4947L229.162 20.4947L229.172 21.9947ZM221.175 25.1095L221.949 26.3941L221.961 26.3867L221.973 26.3791L221.175 25.1095ZM221.008 25.6012L222.504 25.4976L221.008 25.6012ZM222.163 26.8169L222.906 25.5139L222.902 25.5113L222.163 26.8169ZM222.938 27.2586L222.195 28.5616L222.685 28.8414L223.239 28.7281L222.938 27.2586ZM223.613 27.1204L223.328 25.6475L223.32 25.6492L223.312 25.6509L223.613 27.1204ZM226.472 26.9452L226.658 25.4568L226.658 25.4567L226.472 26.9452ZM230.925 28.6259L230.214 29.9467L230.219 29.9493L230.925 28.6259ZM233.822 29.9571L233.412 31.4L233.421 31.4025L233.822 29.9571ZM240.199 33.1661L241.6 32.6299L241.441 32.2147L241.082 31.9532L240.199 33.1661ZM240.204 33.1821L238.76 33.5865L238.771 33.6274L238.785 33.6677L240.204 33.1821ZM240.629 33.572L241.332 32.2467L241.332 32.2467L240.629 33.572ZM240.983 33.9605H239.483V34.7632L240.151 35.2086L240.983 33.9605ZM249.888 43.8505L248.658 44.7086L248.664 44.7166L249.888 43.8505ZM259.818 60.4257L258.448 61.0357L258.452 61.0452L259.818 60.4257ZM261.17 63.4078L262.257 64.4421L262.954 63.7095L262.536 62.7883L261.17 63.4078ZM258.893 65.8005L259.969 66.8454L259.974 66.8401L259.979 66.8347L258.893 65.8005ZM258.145 79.0121L259.127 77.8782L259.108 77.8614L259.088 77.8453L258.145 79.0121ZM262.345 81.4048L262.983 80.0472L262.975 80.0435L262.967 80.04L262.345 81.4048ZM265.37 82.8265L264.732 84.184L265.033 84.3256L265.366 84.3265L265.37 82.8265ZM302.989 82.9305L302.985 84.4305L302.987 84.4305L302.989 82.9305ZM340.609 82.9999L340.606 84.4999H340.609L340.609 82.9999ZM340.897 82.9997L342.397 83.0181L342.415 81.499L340.896 81.4997L340.897 82.9997ZM340.929 74.9203L339.429 74.9133V74.9139L340.929 74.9203ZM341 59.7322L342.5 59.7392L342.514 56.8285L340.135 58.5065L341 59.7322ZM339.968 60.4604L340.819 61.6955L340.826 61.6908L340.833 61.686L339.968 60.4604ZM322.564 57.6863L323.4 56.4409L323.392 56.4353L322.564 57.6863ZM303.167 57.825L304.115 58.9876L304.124 58.9804L303.167 57.825ZM301.423 59.2467L301.493 60.7451L301.988 60.722L302.371 60.4093L301.423 59.2467ZM296.227 59.4894L296.281 60.9884L296.289 60.9882L296.297 60.9878L296.227 59.4894ZM295.437 59.518L295.383 58.019L295.368 58.0195L295.354 58.0203L295.437 59.518ZM295.437 59.518L295.491 61.0171L295.506 61.0165L295.52 61.0157L295.437 59.518ZM288.077 59.7322V58.2322H288.068L288.059 58.2323L288.077 59.7322ZM285.194 59.7668L283.898 59.0112L282.564 61.2986L285.212 61.2667L285.194 59.7668ZM287.863 55.1896L289.159 55.9452L289.16 55.943L287.863 55.1896ZM296.591 42.8258L295.853 41.5198L295.845 41.5239L295.838 41.5281L296.591 42.8258ZM301.169 41.4074L300.867 39.9382L300.866 39.9384L301.169 41.4074ZM304.54 40.2647L305.432 41.4706L305.434 41.4691L304.54 40.2647ZM305.237 39.4877L303.91 38.7877L303.908 38.7929L305.237 39.4877ZM304.433 33.2408L305.749 32.5208L305.748 32.5206L304.433 33.2408ZM304.215 26.1794L305.667 26.554L305.668 26.5527L304.215 26.1794ZM304.861 22.8913L303.367 22.7529L303.366 22.7611L303.366 22.7693L304.861 22.8913ZM305.195 20.1645L303.712 19.9403L303.712 19.9415L305.195 20.1645ZM305.516 16.913L304.016 16.9564L304.016 16.9579L305.516 16.913ZM303.663 14.4993C303.499 14.5076 303.384 14.4704 303.33 14.4481C303.277 14.4258 303.259 14.4081 303.272 14.4187C303.283 14.4279 303.309 14.4523 303.343 14.4964C303.375 14.5398 303.41 14.5954 303.442 14.6617L306.145 13.3602C305.916 12.8834 305.591 12.4466 305.194 12.1148C304.821 11.8039 304.234 11.4666 303.511 11.5032L303.663 14.4993ZM304.172 14.3628C304.251 14.2508 304.29 14.1993 304.31 14.1734C304.333 14.1449 304.291 14.2034 304.197 14.2757C304.145 14.3161 304.079 14.3587 304.001 14.3966C303.922 14.4345 303.848 14.4596 303.784 14.4757C303.677 14.503 303.602 14.5024 303.663 14.4993L303.511 11.5032C303.326 11.5125 302.841 11.5342 302.368 11.8977C302.063 12.1325 301.835 12.4719 301.721 12.6331L304.172 14.3628ZM303.537 15.6833C303.827 14.9585 304.057 14.5233 304.163 14.3752L301.73 12.6206C301.393 13.0881 301.052 13.8184 300.751 14.5717L303.537 15.6833ZM300.594 20.8889C301.496 19.5906 302.044 18.7856 302.457 18.0559C302.885 17.2997 303.158 16.6456 303.539 15.6783L300.749 14.5766C300.374 15.5274 300.165 16.0154 299.847 16.5772C299.514 17.1654 299.049 17.8544 298.13 19.1781L300.594 20.8889ZM295.316 29.2672C296.539 26.8988 297.596 25.2091 300.595 20.8888L298.13 19.1783C295.11 23.5296 293.964 25.3466 292.651 27.891L295.316 29.2672ZM290.505 37.2637C292.41 34.4784 293.977 31.8715 295.317 29.2649L292.649 27.8933C291.374 30.3743 289.873 32.8737 288.029 35.5699L290.505 37.2637ZM289.02 39.2674C289.632 38.4905 290.073 37.8903 290.502 37.2675L288.032 35.566C287.643 36.1296 287.24 36.6781 286.663 37.4108L289.02 39.2674ZM285.112 43.4673C286.316 42.1918 287.746 40.6783 288.953 39.3465L286.73 37.3317C285.547 38.6365 284.14 40.1267 282.931 41.4075L285.112 43.4673ZM285.108 43.4717L285.108 43.471L282.934 41.4038L282.933 41.4045L285.108 43.4717ZM285.081 43.4989L285.081 43.4988L282.96 41.3774L282.96 41.3775L285.081 43.4989ZM283.357 45.3349C283.82 44.8357 284.428 44.1915 285.111 43.4681L282.93 41.4083C282.25 42.1278 281.631 42.7839 281.156 43.2959L283.357 45.3349ZM270.78 56.7589C271.109 56.7589 271.353 56.6491 271.405 56.6263C271.499 56.5851 271.574 56.5418 271.617 56.5152C271.708 56.4605 271.789 56.4011 271.849 56.3562C271.975 56.2618 272.121 56.1406 272.274 56.0096C272.586 55.7429 273 55.3706 273.478 54.9312C274.438 54.0492 275.696 52.8582 276.996 51.6106C279.585 49.1265 282.394 46.3631 283.352 45.3407L281.162 43.2902C280.268 44.2443 277.517 46.9527 274.919 49.4461C273.626 50.6874 272.384 51.8616 271.448 52.7227C270.978 53.1549 270.595 53.4985 270.324 53.7299C270.186 53.848 270.095 53.9214 270.045 53.9593C270.017 53.9805 270.026 53.9718 270.06 53.9511C270.076 53.9416 270.127 53.9112 270.201 53.8786C270.233 53.8644 270.462 53.7589 270.78 53.7589V56.7589ZM268.283 53.561C268.543 54.2119 268.808 54.8119 269.029 55.2616C269.137 55.4816 269.248 55.6933 269.352 55.8643C269.401 55.9437 269.475 56.0588 269.567 56.1706C269.611 56.2232 269.697 56.3222 269.821 56.4209C269.892 56.4775 270.242 56.7589 270.78 56.7589V53.7589C271.066 53.7589 271.286 53.8409 271.412 53.9009C271.542 53.9626 271.635 54.0307 271.689 54.0737C271.794 54.1571 271.858 54.2333 271.877 54.256C271.92 54.3079 271.934 54.3347 271.912 54.3003C271.878 54.2438 271.813 54.1261 271.721 53.9386C271.542 53.5734 271.308 53.0464 271.07 52.4489L268.283 53.561ZM266.606 50.1842C267.033 50.8394 267.809 52.3733 268.283 53.561L271.07 52.4489C270.547 51.14 269.686 49.4143 269.117 48.5437L266.606 50.1842ZM254.022 36.5325C260.324 41.8885 264.979 47.6749 266.603 50.1799L269.12 48.5481C267.327 45.7823 262.474 39.7788 255.964 34.2465L254.022 36.5325ZM250.035 33.1683C251.094 34.0513 252.401 35.1407 254.016 36.5275L255.97 34.2515C254.337 32.8492 253.016 31.7477 251.955 30.8638L250.035 33.1683ZM250.058 33.1873L250.058 33.1874L251.932 30.8447L251.932 30.8447L250.058 33.1873ZM248.185 31.6132C248.699 32.0553 249.314 32.5676 250.034 33.1682L251.955 30.8638C251.229 30.2584 250.634 29.7621 250.14 29.3379L248.185 31.6132ZM249.976 31.7355L250.094 31.6598L248.466 29.1399L248.348 29.2156L249.976 31.7355ZM250.294 29.2948C248.791 27.915 248.51 27.5457 248.159 26.9402L245.564 28.4454C246.149 29.4555 246.706 30.0734 248.265 31.5049L250.294 29.2948ZM245.357 27.7924C245.366 27.8555 245.377 27.9189 245.389 27.9826L248.333 27.403C248.331 27.392 248.329 27.3801 248.327 27.3671L245.357 27.7924ZM245.716 28.4777C245.701 28.4666 245.637 28.415 245.565 28.3152C245.49 28.2115 245.387 28.0274 245.354 27.7706L248.33 27.3888C248.241 26.6989 247.784 26.2877 247.568 26.1181L245.716 28.4777ZM247.972 26.6051C247.469 25.6389 247.286 24.6054 246.946 22.4263L243.982 22.8877C244.302 24.9447 244.537 26.5041 245.312 27.9907L247.972 26.6051ZM246.946 22.4262C246.833 21.6975 246.716 21.0775 246.509 20.5495C246.273 19.9457 245.949 19.5294 245.556 19.1445L243.457 21.2873C243.631 21.4576 243.672 21.5304 243.716 21.6427C243.789 21.8307 243.868 22.1537 243.982 22.8878L246.946 22.4262ZM245.545 19.1336C244.757 18.3768 243.774 17.9523 242.663 17.9044L242.533 20.9016C242.914 20.9181 243.205 21.0456 243.468 21.2982L245.545 19.1336ZM242.657 17.9042C241.396 17.8543 240.58 18.1174 238.756 18.8771L239.909 21.6466C241.685 20.9069 241.979 20.8797 242.539 20.9019L242.657 17.9042ZM238.755 18.8772C237.196 19.5268 236.309 19.8591 235.494 20.0575C234.697 20.2514 233.914 20.3301 232.545 20.3949L232.687 23.3916C234.099 23.3247 235.116 23.2368 236.203 22.9725C237.271 22.7126 238.352 22.295 239.909 21.6465L238.755 18.8772ZM232.545 20.3949C231.499 20.4448 229.969 20.4905 229.164 20.4947L229.179 23.4947C230.039 23.4902 231.613 23.4428 232.688 23.3915L232.545 20.3949ZM229.162 20.4947C227.679 20.5046 226.605 20.5463 225.278 21.0635C224.062 21.5375 222.656 22.4052 220.376 23.84L221.973 26.3791C224.348 24.8848 225.479 24.2049 226.368 23.8586C227.145 23.5555 227.742 23.5043 229.182 23.4947L229.162 20.4947ZM220.4 23.825C220.239 23.9223 219.794 24.2009 219.596 24.7971C219.461 25.2006 219.505 25.6131 219.511 25.7049L222.504 25.4976C222.499 25.4218 222.5 25.4149 222.5 25.4348C222.499 25.454 222.497 25.5802 222.441 25.7465C222.376 25.9434 222.265 26.1136 222.134 26.2442C222.078 26.3006 222.029 26.3391 221.998 26.361C221.983 26.3722 221.971 26.3804 221.963 26.3856C221.955 26.3907 221.95 26.3936 221.949 26.3941L220.4 23.825ZM219.511 25.7049C219.543 26.161 219.664 26.7124 220.15 27.2254C220.496 27.5896 220.982 27.872 221.425 28.1224L222.902 25.5113C222.669 25.3798 222.518 25.2888 222.414 25.2197C222.308 25.1488 222.3 25.1321 222.327 25.1608C222.344 25.1789 222.372 25.2115 222.402 25.2584C222.432 25.3065 222.457 25.3576 222.476 25.4082C222.511 25.5032 222.508 25.558 222.504 25.4976L219.511 25.7049ZM221.42 28.1198L222.195 28.5616L223.681 25.9556L222.906 25.5139L221.42 28.1198ZM223.239 28.7281L223.914 28.5899L223.312 25.6509L222.637 25.7891L223.239 28.7281ZM223.897 28.5933C224.729 28.4328 225.827 28.3764 226.286 28.4336L226.658 25.4567C225.781 25.3474 224.346 25.4512 223.328 25.6475L223.897 28.5933ZM226.286 28.4336C227.229 28.5515 228.341 28.9385 230.214 29.9467L231.636 27.3051C229.645 26.2334 228.147 25.6429 226.658 25.4568L226.286 28.4336ZM230.219 29.9493C231.193 30.4689 231.761 30.77 232.185 30.9648C232.665 31.1849 232.982 31.2777 233.412 31.4L234.232 28.5142C233.843 28.4037 233.703 28.3604 233.436 28.2379C233.114 28.09 232.643 27.8419 231.631 27.3024L230.219 29.9493ZM233.421 31.4025C234.99 31.8381 237.268 32.889 239.317 34.3791L241.082 31.9532C238.77 30.2712 236.169 29.0519 234.223 28.5118L233.421 31.4025ZM241.649 32.7777C241.634 32.7249 241.617 32.6755 241.6 32.6299L238.798 33.7024C238.785 33.6676 238.772 33.6289 238.76 33.5865L241.649 32.7777ZM241.332 32.2467C241.284 32.2213 241.271 32.214 241.263 32.2094C241.258 32.2064 241.28 32.2192 241.316 32.2473C241.395 32.3108 241.541 32.4564 241.624 32.6966L238.785 33.6677C239.077 34.5206 239.861 34.8625 239.927 34.8972L241.332 32.2467ZM242.483 33.9605C242.483 33.3522 242.193 32.9001 241.887 32.6204C241.653 32.4062 241.378 32.271 241.332 32.2467L239.927 34.8972C239.98 34.9257 239.986 34.9294 239.985 34.9287C239.982 34.9266 239.93 34.8956 239.863 34.8343C239.791 34.7693 239.689 34.6572 239.607 34.4901C239.521 34.3156 239.483 34.1317 239.483 33.9605H242.483ZM251.118 42.9923C249.816 41.1257 247.83 38.7908 246.044 36.8441C245.147 35.8654 244.286 34.9694 243.569 34.2634C242.891 33.5957 242.245 32.9995 241.815 32.7125L240.151 35.2086C240.304 35.3107 240.752 35.6989 241.464 36.4005C242.137 37.0637 242.962 37.9219 243.834 38.8719C245.586 40.7827 247.469 43.0036 248.658 44.7086L251.118 42.9923ZM261.188 59.8156C259.851 56.8111 254.059 47.1502 251.113 42.9843L248.664 44.7166C251.554 48.8037 257.223 58.284 258.448 61.0357L261.188 59.8156ZM262.536 62.7883L261.184 59.8061L258.452 61.0452L259.804 64.0274L262.536 62.7883ZM259.979 66.8347L262.257 64.4421L260.084 62.3736L257.806 64.7662L259.979 66.8347ZM256.371 72.8744C256.371 72.3289 256.615 71.469 257.251 70.3531C257.87 69.2667 258.792 68.0574 259.969 66.8454L257.816 64.7556C256.502 66.1096 255.413 67.5184 254.644 68.8679C253.892 70.188 253.371 71.5821 253.371 72.8744H256.371ZM259.088 77.8453C258.593 77.4455 257.889 76.5038 257.285 75.369C256.996 74.8254 256.757 74.2874 256.594 73.8186C256.421 73.322 256.371 73.0075 256.371 72.8744H253.371C253.371 73.5042 253.547 74.191 253.761 74.8041C253.983 75.4448 254.289 76.1249 254.636 76.7776C255.305 78.0355 256.238 79.3997 257.203 80.1789L259.088 77.8453ZM262.967 80.04C262.175 79.6784 261.325 79.2398 260.601 78.8271C259.844 78.3958 259.326 78.0504 259.127 77.8782L257.163 80.146C257.605 80.5286 258.351 80.9981 259.115 81.4337C259.913 81.8879 260.842 82.3682 261.722 82.7695L262.967 80.04ZM266.008 81.4689L262.983 80.0472L261.707 82.7623L264.732 84.184L266.008 81.4689ZM302.993 81.4305L265.374 81.3265L265.366 84.3265L302.985 84.4305L302.993 81.4305ZM340.611 81.4999L302.992 81.4305L302.987 84.4305L340.606 84.4999L340.611 81.4999ZM340.896 81.4997L340.608 81.4999L340.609 84.4999L340.897 84.4997L340.896 81.4997ZM339.429 74.9139C339.411 79.0924 339.403 81.1127 339.399 82.0883C339.398 82.576 339.397 82.8034 339.397 82.9091C339.397 82.9608 339.397 82.9863 339.397 82.9994C339.397 83.0024 339.397 83.0083 339.397 83.0148C339.397 83.0169 339.397 83.0261 339.397 83.0377C339.397 83.0412 339.398 83.0586 339.399 83.0808C339.399 83.0879 339.401 83.1209 339.405 83.1628C339.408 83.1892 339.42 83.263 339.429 83.3104C339.46 83.4313 339.807 84.0318 340.272 84.3645C341.338 84.4344 342.275 83.5925 342.343 83.3964C342.36 83.3288 342.379 83.2283 342.384 83.1961C342.39 83.146 342.393 83.1062 342.393 83.0999C342.395 83.0756 342.396 83.0565 342.396 83.0532C342.396 83.0412 342.396 83.0317 342.396 83.03C342.396 83.0264 342.396 83.0236 342.396 83.022C342.396 83.0212 342.396 83.0204 342.396 83.0198C342.396 83.0194 342.397 83.0191 342.397 83.0189C342.397 83.0187 342.397 83.0185 342.397 83.0185C342.397 83.0183 342.397 83.0181 340.897 82.9997C339.397 82.9813 339.397 82.9811 339.397 82.981C339.397 82.9809 339.397 82.9807 339.397 82.9806C339.397 82.9803 339.397 82.9801 339.397 82.9798C339.397 82.9792 339.397 82.9785 339.397 82.9777C339.397 82.9764 339.397 82.9738 339.397 82.9705C339.397 82.969 339.397 82.9598 339.398 82.948C339.398 82.9449 339.398 82.9258 339.4 82.9016C339.4 82.8953 339.403 82.8556 339.409 82.8055C339.414 82.7732 339.433 82.6728 339.45 82.6052C339.518 82.4091 340.455 81.5671 341.521 81.6371C341.986 81.9698 342.333 82.5703 342.364 82.6912C342.373 82.7385 342.385 82.8124 342.388 82.8387C342.392 82.8806 342.394 82.9136 342.394 82.9207C342.396 82.9428 342.396 82.9601 342.396 82.9634C342.396 82.9746 342.396 82.9833 342.396 82.9846C342.397 82.9895 342.397 82.9926 342.397 82.9913C342.397 82.9869 342.397 82.9688 342.397 82.9159C342.397 82.8125 342.398 82.587 342.399 82.0994C342.403 81.1246 342.411 79.1051 342.429 74.9267L339.429 74.9139ZM339.5 59.7251L339.429 74.9133L342.429 74.9273L342.5 59.7392L339.5 59.7251ZM340.833 61.686L341.865 60.9578L340.135 58.5065L339.103 59.2347L340.833 61.686ZM334.523 63.6942C336.511 63.6942 339.119 62.8669 340.819 61.6955L339.117 59.2252C337.898 60.065 335.88 60.6942 334.523 60.6942V63.6942ZM321.728 58.9316C326.087 61.8584 330.83 63.6942 334.523 63.6942V60.6942C331.666 60.6942 327.511 59.201 323.4 56.4409L321.728 58.9316ZM304.124 58.9804C308.973 54.9659 315.531 54.8313 321.736 58.9372L323.392 56.4353C316.286 51.7335 308.252 51.6682 302.211 56.6695L304.124 58.9804ZM302.371 60.4093L304.115 58.9876L302.219 56.6623L300.475 58.0841L302.371 60.4093ZM296.297 60.9878L301.493 60.7451L301.353 57.7483L296.157 57.9911L296.297 60.9878ZM295.492 61.017L296.281 60.9884L296.173 57.9904L295.383 58.019L295.492 61.017ZM295.52 61.0157L295.52 61.0157L295.354 58.0203L295.354 58.0203L295.52 61.0157ZM288.077 61.2322C289.57 61.2322 292.777 61.1155 295.491 61.0171L295.383 58.019C292.633 58.1188 289.5 58.2322 288.077 58.2322V61.2322ZM285.212 61.2667L288.095 61.232L288.059 58.2323L285.176 58.2669L285.212 61.2667ZM286.568 54.4339L283.898 59.0112L286.49 60.5225L289.159 55.9452L286.568 54.4339ZM295.838 41.5281C295.438 41.7603 294.993 42.0298 294.478 42.4933C293.978 42.9436 293.451 43.54 292.808 44.4068C291.535 46.1238 289.684 49.0685 286.566 54.4362L289.16 55.943C292.282 50.5687 294.057 47.7595 295.218 46.1941C295.792 45.4197 296.186 44.9928 296.485 44.723C296.77 44.4665 297.005 44.3192 297.343 44.1234L295.838 41.5281ZM300.866 39.9384C298.517 40.4233 297.128 40.7994 295.853 41.5198L297.329 44.1317C298.156 43.6642 299.13 43.3599 301.473 42.8765L300.866 39.9384ZM303.647 39.0589C303.267 39.3403 302.919 39.5163 300.867 39.9382L301.472 42.8767C303.5 42.4594 304.46 42.1893 305.432 41.4706L303.647 39.0589ZM303.908 38.7929C303.839 38.9253 303.831 38.9195 303.852 38.8966C303.857 38.8909 303.833 38.9213 303.645 39.0604L305.434 41.4691C305.643 41.3138 305.874 41.1349 306.082 40.9038C306.305 40.6556 306.448 40.4086 306.566 40.1826L303.908 38.7929ZM303.117 33.9607C304.364 36.2408 304.389 37.8813 303.91 38.7877L306.564 40.1877C307.738 37.962 307.187 35.1507 305.749 32.5208L303.117 33.9607ZM302.762 25.8049C302.256 27.7689 301.945 29.1842 301.984 30.4219C302.027 31.7665 302.473 32.7853 303.117 33.9609L305.748 32.5206C305.179 31.4799 305.003 30.9618 304.983 30.3268C304.959 29.5848 305.145 28.5775 305.667 26.554L302.762 25.8049ZM303.366 22.7693C303.307 23.486 303.151 24.2923 302.762 25.8062L305.668 26.5527C306.065 25.0042 306.276 23.995 306.356 23.0133L303.366 22.7693ZM303.712 19.9415C303.579 20.8242 303.429 22.0854 303.367 22.7529L306.354 23.0297C306.411 22.4191 306.554 21.2143 306.678 20.3875L303.712 19.9415ZM304.016 16.9579C304.031 17.4575 303.959 18.3077 303.712 19.9403L306.678 20.3887C306.924 18.7595 307.039 17.6676 307.015 16.8681L304.016 16.9579ZM303.437 14.6513C303.437 14.651 303.438 14.6536 303.441 14.6597C303.444 14.6657 303.447 14.6742 303.452 14.6852C303.461 14.7077 303.472 14.7372 303.485 14.7745C303.512 14.8495 303.544 14.944 303.578 15.0556C303.647 15.2789 303.72 15.5465 303.788 15.8203C303.857 16.0942 303.916 16.3614 303.958 16.5838C303.979 16.6951 303.995 16.7878 304.005 16.86C304.016 16.9389 304.017 16.9663 304.016 16.9564L307.015 16.8696C307.002 16.4093 306.842 15.666 306.7 15.0958C306.555 14.5146 306.349 13.7906 306.15 13.3705L303.437 14.6513Z" fill="#0070FE"/>
</g>
<path d="M303.587 13.0012L303.511 11.5032L303.587 13.0012ZM304.794 14.0109L306.15 13.3705L306.145 13.3602L304.794 14.0109ZM302.947 13.4979L304.163 14.3752L304.168 14.369L304.172 14.3628L302.947 13.4979ZM302.144 15.1275L300.751 14.5717L300.749 14.5766L302.144 15.1275ZM299.362 20.0335L298.13 19.1781L298.13 19.1783L299.362 20.0335ZM293.983 28.5791L292.651 27.891L292.649 27.8933L293.983 28.5791ZM289.267 36.4168L290.502 37.2675L290.505 37.2637L289.267 36.4168ZM287.841 38.3391L288.953 39.3465L288.988 39.3081L289.02 39.2674L287.841 38.3391ZM284.021 42.4374L285.108 43.471L285.112 43.4673L284.021 42.4374ZM284.021 42.4381L285.081 43.4988L285.095 43.4854L285.108 43.4717L284.021 42.4381ZM284.02 42.4382L282.96 41.3775L282.945 41.3927L282.93 41.4083L284.02 42.4382ZM282.257 44.3154L283.352 45.3407L283.357 45.3349L282.257 44.3154ZM269.677 53.005L268.283 53.561V53.561L269.677 53.005ZM267.861 49.364L266.603 50.1799L266.606 50.1842L267.861 49.364ZM254.993 35.3895L254.016 36.5275L254.022 36.5325L254.993 35.3895ZM250.995 32.0161L251.955 30.8638L251.944 30.8542L251.932 30.8447L250.995 32.0161ZM250.995 32.016L250.034 33.1682L250.046 33.1779L250.058 33.1873L250.995 32.016ZM249.162 30.4756L248.348 29.2156L246.662 30.3049L248.185 31.6132L249.162 30.4756ZM249.28 30.3998L250.094 31.6598L251.723 30.6069L250.294 29.2948L249.28 30.3998ZM246.861 27.6928L245.389 27.9826L245.438 28.2285L245.564 28.4454L246.861 27.6928ZM246.842 27.5797L245.354 27.7706L245.356 27.7815L245.357 27.7924L246.842 27.5797ZM246.642 27.2979L245.312 27.9907L245.461 28.2778L245.716 28.4777L246.642 27.2979ZM245.464 22.657L246.946 22.4263L246.946 22.4262L245.464 22.657ZM244.507 20.2159L245.556 19.1445L245.551 19.139L245.545 19.1336L244.507 20.2159ZM242.598 19.403L242.663 17.9044L242.657 17.9042L242.598 19.403ZM239.332 20.2619L238.756 18.8771L238.755 18.8772L239.332 20.2619ZM232.616 21.8932L232.545 20.3949L232.545 20.3949L232.616 21.8932ZM229.172 21.9947L229.164 20.4947L229.162 20.4947L229.172 21.9947ZM221.175 25.1095L221.949 26.3941L221.961 26.3867L221.973 26.3791L221.175 25.1095ZM221.008 25.6012L222.504 25.4976L221.008 25.6012ZM222.163 26.8169L222.906 25.5139L222.902 25.5113L222.163 26.8169ZM222.938 27.2586L222.195 28.5616L222.685 28.8414L223.239 28.7281L222.938 27.2586ZM223.613 27.1204L223.328 25.6475L223.32 25.6492L223.312 25.6509L223.613 27.1204ZM226.472 26.9452L226.658 25.4568L226.658 25.4567L226.472 26.9452ZM230.925 28.6259L230.214 29.9467L230.219 29.9493L230.925 28.6259ZM233.822 29.9571L233.412 31.4L233.421 31.4025L233.822 29.9571ZM240.199 33.1661L241.6 32.6299L241.441 32.2147L241.082 31.9532L240.199 33.1661ZM240.204 33.1821L238.76 33.5865L238.771 33.6274L238.785 33.6677L240.204 33.1821ZM240.629 33.572L241.332 32.2467L241.332 32.2467L240.629 33.572ZM240.983 33.9605H239.483V34.7632L240.151 35.2086L240.983 33.9605ZM249.888 43.8505L248.658 44.7086L248.664 44.7166L249.888 43.8505ZM259.818 60.4257L258.448 61.0357L258.452 61.0452L259.818 60.4257ZM261.17 63.4078L262.257 64.4421L262.954 63.7095L262.536 62.7883L261.17 63.4078ZM258.893 65.8005L259.969 66.8454L259.974 66.8401L259.979 66.8347L258.893 65.8005ZM258.145 79.0121L259.127 77.8782L259.108 77.8614L259.088 77.8453L258.145 79.0121ZM262.345 81.4048L262.983 80.0472L262.975 80.0435L262.967 80.04L262.345 81.4048ZM265.37 82.8265L264.732 84.184L265.033 84.3256L265.366 84.3265L265.37 82.8265ZM302.989 82.9305L302.985 84.4305L302.987 84.4305L302.989 82.9305ZM340.609 82.9999L340.606 84.4999H340.609L340.609 82.9999ZM340.897 82.9997L342.397 83.0181L342.415 81.499L340.896 81.4997L340.897 82.9997ZM340.929 74.9203L339.429 74.9133V74.9139L340.929 74.9203ZM341 59.7322L342.5 59.7392L342.514 56.8285L340.135 58.5065L341 59.7322ZM339.968 60.4604L340.819 61.6955L340.826 61.6908L340.833 61.686L339.968 60.4604ZM322.564 57.6863L323.4 56.4409L323.392 56.4353L322.564 57.6863ZM303.167 57.825L304.115 58.9876L304.124 58.9804L303.167 57.825ZM301.423 59.2467L301.493 60.7451L301.988 60.722L302.371 60.4093L301.423 59.2467ZM296.227 59.4894L296.281 60.9884L296.289 60.9882L296.297 60.9878L296.227 59.4894ZM295.437 59.518L295.383 58.019L295.368 58.0195L295.354 58.0203L295.437 59.518ZM295.437 59.518L295.491 61.0171L295.506 61.0165L295.52 61.0157L295.437 59.518ZM288.077 59.7322V58.2322H288.068L288.059 58.2323L288.077 59.7322ZM285.194 59.7668L283.898 59.0112L282.564 61.2986L285.212 61.2667L285.194 59.7668ZM287.863 55.1896L289.159 55.9452L289.16 55.943L287.863 55.1896ZM296.591 42.8258L295.853 41.5198L295.845 41.5239L295.838 41.5281L296.591 42.8258ZM301.169 41.4074L300.867 39.9382L300.866 39.9384L301.169 41.4074ZM304.54 40.2647L305.432 41.4706L305.434 41.4691L304.54 40.2647ZM305.237 39.4877L303.91 38.7877L303.908 38.7929L305.237 39.4877ZM304.433 33.2408L305.749 32.5208L305.748 32.5206L304.433 33.2408ZM304.215 26.1794L305.667 26.554L305.668 26.5527L304.215 26.1794ZM304.861 22.8913L303.367 22.7529L303.366 22.7611L303.366 22.7693L304.861 22.8913ZM305.195 20.1645L303.712 19.9403L303.712 19.9415L305.195 20.1645ZM305.516 16.913L304.016 16.9564L304.016 16.9579L305.516 16.913ZM303.663 14.4993C303.499 14.5076 303.384 14.4704 303.33 14.4481C303.277 14.4258 303.259 14.4081 303.272 14.4187C303.283 14.4279 303.309 14.4523 303.343 14.4964C303.375 14.5398 303.41 14.5954 303.442 14.6617L306.145 13.3602C305.916 12.8834 305.591 12.4466 305.194 12.1148C304.821 11.8039 304.234 11.4666 303.511 11.5032L303.663 14.4993ZM304.172 14.3628C304.251 14.2508 304.29 14.1993 304.31 14.1734C304.333 14.1449 304.291 14.2034 304.197 14.2757C304.145 14.3161 304.079 14.3587 304.001 14.3966C303.922 14.4345 303.848 14.4596 303.784 14.4757C303.677 14.503 303.602 14.5024 303.663 14.4993L303.511 11.5032C303.326 11.5125 302.841 11.5342 302.368 11.8977C302.063 12.1325 301.835 12.4719 301.721 12.6331L304.172 14.3628ZM303.537 15.6833C303.827 14.9585 304.057 14.5233 304.163 14.3752L301.73 12.6206C301.393 13.0881 301.052 13.8184 300.751 14.5717L303.537 15.6833ZM300.594 20.8889C301.496 19.5906 302.044 18.7856 302.457 18.0559C302.885 17.2997 303.158 16.6456 303.539 15.6783L300.749 14.5766C300.374 15.5274 300.165 16.0154 299.847 16.5772C299.514 17.1654 299.049 17.8544 298.13 19.1781L300.594 20.8889ZM295.316 29.2672C296.539 26.8988 297.596 25.2091 300.595 20.8888L298.13 19.1783C295.11 23.5296 293.964 25.3466 292.651 27.891L295.316 29.2672ZM290.505 37.2637C292.41 34.4784 293.977 31.8715 295.317 29.2649L292.649 27.8933C291.374 30.3743 289.873 32.8737 288.029 35.5699L290.505 37.2637ZM289.02 39.2674C289.632 38.4905 290.073 37.8903 290.502 37.2675L288.032 35.566C287.643 36.1296 287.24 36.6781 286.663 37.4108L289.02 39.2674ZM285.112 43.4673C286.316 42.1918 287.746 40.6783 288.953 39.3465L286.73 37.3317C285.547 38.6365 284.14 40.1267 282.931 41.4075L285.112 43.4673ZM285.108 43.4717L285.108 43.471L282.934 41.4038L282.933 41.4045L285.108 43.4717ZM285.081 43.4989L285.081 43.4988L282.96 41.3774L282.96 41.3775L285.081 43.4989ZM283.357 45.3349C283.82 44.8357 284.428 44.1915 285.111 43.4681L282.93 41.4083C282.25 42.1278 281.631 42.7839 281.156 43.2959L283.357 45.3349ZM270.78 56.7589C271.109 56.7589 271.353 56.6491 271.405 56.6263C271.499 56.5851 271.574 56.5418 271.617 56.5152C271.708 56.4605 271.789 56.4011 271.849 56.3562C271.975 56.2618 272.121 56.1406 272.274 56.0096C272.586 55.7429 273 55.3706 273.478 54.9312C274.438 54.0492 275.696 52.8582 276.996 51.6106C279.585 49.1265 282.394 46.3631 283.352 45.3407L281.162 43.2902C280.268 44.2443 277.517 46.9527 274.919 49.4461C273.626 50.6874 272.384 51.8616 271.448 52.7227C270.978 53.1549 270.595 53.4985 270.324 53.7299C270.186 53.848 270.095 53.9214 270.045 53.9593C270.017 53.9805 270.026 53.9718 270.06 53.9511C270.076 53.9416 270.127 53.9112 270.201 53.8786C270.233 53.8644 270.462 53.7589 270.78 53.7589V56.7589ZM268.283 53.561C268.543 54.2119 268.808 54.8119 269.029 55.2616C269.137 55.4816 269.248 55.6933 269.352 55.8643C269.401 55.9437 269.475 56.0588 269.567 56.1706C269.611 56.2232 269.697 56.3222 269.821 56.4209C269.892 56.4775 270.242 56.7589 270.78 56.7589V53.7589C271.066 53.7589 271.286 53.8409 271.412 53.9009C271.542 53.9626 271.635 54.0307 271.689 54.0737C271.794 54.1571 271.858 54.2333 271.877 54.256C271.92 54.3079 271.934 54.3347 271.912 54.3003C271.878 54.2438 271.813 54.1261 271.721 53.9386C271.542 53.5734 271.308 53.0464 271.07 52.4489L268.283 53.561ZM266.606 50.1842C267.033 50.8394 267.809 52.3733 268.283 53.561L271.07 52.4489C270.547 51.14 269.686 49.4143 269.117 48.5437L266.606 50.1842ZM254.022 36.5325C260.324 41.8885 264.979 47.6749 266.603 50.1799L269.12 48.5481C267.327 45.7823 262.474 39.7788 255.964 34.2465L254.022 36.5325ZM250.035 33.1683C251.094 34.0513 252.401 35.1407 254.016 36.5275L255.97 34.2515C254.337 32.8492 253.016 31.7477 251.955 30.8638L250.035 33.1683ZM250.058 33.1873L250.058 33.1874L251.932 30.8447L251.932 30.8447L250.058 33.1873ZM248.185 31.6132C248.699 32.0553 249.314 32.5676 250.034 33.1682L251.955 30.8638C251.229 30.2584 250.634 29.7621 250.14 29.3379L248.185 31.6132ZM249.976 31.7355L250.094 31.6598L248.466 29.1399L248.348 29.2156L249.976 31.7355ZM250.294 29.2948C248.791 27.915 248.51 27.5457 248.159 26.9402L245.564 28.4454C246.149 29.4555 246.706 30.0734 248.265 31.5049L250.294 29.2948ZM245.357 27.7924C245.366 27.8555 245.377 27.9189 245.389 27.9826L248.333 27.403C248.331 27.392 248.329 27.3801 248.327 27.3671L245.357 27.7924ZM245.716 28.4777C245.701 28.4666 245.637 28.415 245.565 28.3152C245.49 28.2115 245.387 28.0274 245.354 27.7706L248.33 27.3888C248.241 26.6989 247.784 26.2877 247.568 26.1181L245.716 28.4777ZM247.972 26.6051C247.469 25.6389 247.286 24.6054 246.946 22.4263L243.982 22.8877C244.302 24.9447 244.537 26.5041 245.312 27.9907L247.972 26.6051ZM246.946 22.4262C246.833 21.6975 246.716 21.0775 246.509 20.5495C246.273 19.9457 245.949 19.5294 245.556 19.1445L243.457 21.2873C243.631 21.4576 243.672 21.5304 243.716 21.6427C243.789 21.8307 243.868 22.1537 243.982 22.8878L246.946 22.4262ZM245.545 19.1336C244.757 18.3768 243.774 17.9523 242.663 17.9044L242.533 20.9016C242.914 20.9181 243.205 21.0456 243.468 21.2982L245.545 19.1336ZM242.657 17.9042C241.396 17.8543 240.58 18.1174 238.756 18.8771L239.909 21.6466C241.685 20.9069 241.979 20.8797 242.539 20.9019L242.657 17.9042ZM238.755 18.8772C237.196 19.5268 236.309 19.8591 235.494 20.0575C234.697 20.2514 233.914 20.3301 232.545 20.3949L232.687 23.3916C234.099 23.3247 235.116 23.2368 236.203 22.9725C237.271 22.7126 238.352 22.295 239.909 21.6465L238.755 18.8772ZM232.545 20.3949C231.499 20.4448 229.969 20.4905 229.164 20.4947L229.179 23.4947C230.039 23.4902 231.613 23.4428 232.688 23.3915L232.545 20.3949ZM229.162 20.4947C227.679 20.5046 226.605 20.5463 225.278 21.0635C224.062 21.5375 222.656 22.4052 220.376 23.84L221.973 26.3791C224.348 24.8848 225.479 24.2049 226.368 23.8586C227.145 23.5555 227.742 23.5043 229.182 23.4947L229.162 20.4947ZM220.4 23.825C220.239 23.9223 219.794 24.2009 219.596 24.7971C219.461 25.2006 219.505 25.6131 219.511 25.7049L222.504 25.4976C222.499 25.4218 222.5 25.4149 222.5 25.4348C222.499 25.454 222.497 25.5802 222.441 25.7465C222.376 25.9434 222.265 26.1136 222.134 26.2442C222.078 26.3006 222.029 26.3391 221.998 26.361C221.983 26.3722 221.971 26.3804 221.963 26.3856C221.955 26.3907 221.95 26.3936 221.949 26.3941L220.4 23.825ZM219.511 25.7049C219.543 26.161 219.664 26.7124 220.15 27.2254C220.496 27.5896 220.982 27.872 221.425 28.1224L222.902 25.5113C222.669 25.3798 222.518 25.2888 222.414 25.2197C222.308 25.1488 222.3 25.1321 222.327 25.1608C222.344 25.1789 222.372 25.2115 222.402 25.2584C222.432 25.3065 222.457 25.3576 222.476 25.4082C222.511 25.5032 222.508 25.558 222.504 25.4976L219.511 25.7049ZM221.42 28.1198L222.195 28.5616L223.681 25.9556L222.906 25.5139L221.42 28.1198ZM223.239 28.7281L223.914 28.5899L223.312 25.6509L222.637 25.7891L223.239 28.7281ZM223.897 28.5933C224.729 28.4328 225.827 28.3764 226.286 28.4336L226.658 25.4567C225.781 25.3474 224.346 25.4512 223.328 25.6475L223.897 28.5933ZM226.286 28.4336C227.229 28.5515 228.341 28.9385 230.214 29.9467L231.636 27.3051C229.645 26.2334 228.147 25.6429 226.658 25.4568L226.286 28.4336ZM230.219 29.9493C231.193 30.4689 231.761 30.77 232.185 30.9648C232.665 31.1849 232.982 31.2777 233.412 31.4L234.232 28.5142C233.843 28.4037 233.703 28.3604 233.436 28.2379C233.114 28.09 232.643 27.8419 231.631 27.3024L230.219 29.9493ZM233.421 31.4025C234.99 31.8381 237.268 32.889 239.317 34.3791L241.082 31.9532C238.77 30.2712 236.169 29.0519 234.223 28.5118L233.421 31.4025ZM241.649 32.7777C241.634 32.7249 241.617 32.6755 241.6 32.6299L238.798 33.7024C238.785 33.6676 238.772 33.6289 238.76 33.5865L241.649 32.7777ZM241.332 32.2467C241.284 32.2213 241.271 32.214 241.263 32.2094C241.258 32.2064 241.28 32.2192 241.316 32.2473C241.395 32.3108 241.541 32.4564 241.624 32.6966L238.785 33.6677C239.077 34.5206 239.861 34.8625 239.927 34.8972L241.332 32.2467ZM242.483 33.9605C242.483 33.3522 242.193 32.9001 241.887 32.6204C241.653 32.4062 241.378 32.271 241.332 32.2467L239.927 34.8972C239.98 34.9257 239.986 34.9294 239.985 34.9287C239.982 34.9266 239.93 34.8956 239.863 34.8343C239.791 34.7693 239.689 34.6572 239.607 34.4901C239.521 34.3156 239.483 34.1317 239.483 33.9605H242.483ZM251.118 42.9923C249.816 41.1257 247.83 38.7908 246.044 36.8441C245.147 35.8654 244.286 34.9694 243.569 34.2634C242.891 33.5957 242.245 32.9995 241.815 32.7125L240.151 35.2086C240.304 35.3107 240.752 35.6989 241.464 36.4005C242.137 37.0637 242.962 37.9219 243.834 38.8719C245.586 40.7827 247.469 43.0036 248.658 44.7086L251.118 42.9923ZM261.188 59.8156C259.851 56.8111 254.059 47.1502 251.113 42.9843L248.664 44.7166C251.554 48.8037 257.223 58.284 258.448 61.0357L261.188 59.8156ZM262.536 62.7883L261.184 59.8061L258.452 61.0452L259.804 64.0274L262.536 62.7883ZM259.979 66.8347L262.257 64.4421L260.084 62.3736L257.806 64.7662L259.979 66.8347ZM256.371 72.8744C256.371 72.3289 256.615 71.469 257.251 70.3531C257.87 69.2667 258.792 68.0574 259.969 66.8454L257.816 64.7556C256.502 66.1096 255.413 67.5184 254.644 68.8679C253.892 70.188 253.371 71.5821 253.371 72.8744H256.371ZM259.088 77.8453C258.593 77.4455 257.889 76.5038 257.285 75.369C256.996 74.8254 256.757 74.2874 256.594 73.8186C256.421 73.322 256.371 73.0075 256.371 72.8744H253.371C253.371 73.5042 253.547 74.191 253.761 74.8041C253.983 75.4448 254.289 76.1249 254.636 76.7776C255.305 78.0355 256.238 79.3997 257.203 80.1789L259.088 77.8453ZM262.967 80.04C262.175 79.6784 261.325 79.2398 260.601 78.8271C259.844 78.3958 259.326 78.0504 259.127 77.8782L257.163 80.146C257.605 80.5286 258.351 80.9981 259.115 81.4337C259.913 81.8879 260.842 82.3682 261.722 82.7695L262.967 80.04ZM266.008 81.4689L262.983 80.0472L261.707 82.7623L264.732 84.184L266.008 81.4689ZM302.993 81.4305L265.374 81.3265L265.366 84.3265L302.985 84.4305L302.993 81.4305ZM340.611 81.4999L302.992 81.4305L302.987 84.4305L340.606 84.4999L340.611 81.4999ZM340.896 81.4997L340.608 81.4999L340.609 84.4999L340.897 84.4997L340.896 81.4997ZM339.429 74.9139C339.411 79.0924 339.403 81.1127 339.399 82.0883C339.398 82.576 339.397 82.8034 339.397 82.9091C339.397 82.9608 339.397 82.9863 339.397 82.9994C339.397 83.0024 339.397 83.0083 339.397 83.0148C339.397 83.0169 339.397 83.0261 339.397 83.0377C339.397 83.0412 339.398 83.0586 339.399 83.0808C339.399 83.0879 339.401 83.1209 339.405 83.1628C339.408 83.1892 339.42 83.263 339.429 83.3104C339.46 83.4313 339.807 84.0318 340.272 84.3645C341.338 84.4344 342.275 83.5925 342.343 83.3964C342.36 83.3288 342.379 83.2283 342.384 83.1961C342.39 83.146 342.393 83.1062 342.393 83.0999C342.395 83.0756 342.396 83.0565 342.396 83.0532C342.396 83.0412 342.396 83.0317 342.396 83.03C342.396 83.0264 342.396 83.0236 342.396 83.022C342.396 83.0212 342.396 83.0204 342.396 83.0198C342.396 83.0194 342.397 83.0191 342.397 83.0189C342.397 83.0187 342.397 83.0185 342.397 83.0185C342.397 83.0183 342.397 83.0181 340.897 82.9997C339.397 82.9813 339.397 82.9811 339.397 82.981C339.397 82.9809 339.397 82.9807 339.397 82.9806C339.397 82.9803 339.397 82.9801 339.397 82.9798C339.397 82.9792 339.397 82.9785 339.397 82.9777C339.397 82.9764 339.397 82.9738 339.397 82.9705C339.397 82.969 339.397 82.9598 339.398 82.948C339.398 82.9449 339.398 82.9258 339.4 82.9016C339.4 82.8953 339.403 82.8556 339.409 82.8055C339.414 82.7732 339.433 82.6728 339.45 82.6052C339.518 82.4091 340.455 81.5671 341.521 81.6371C341.986 81.9698 342.333 82.5703 342.364 82.6912C342.373 82.7385 342.385 82.8124 342.388 82.8387C342.392 82.8806 342.394 82.9136 342.394 82.9207C342.396 82.9428 342.396 82.9601 342.396 82.9634C342.396 82.9746 342.396 82.9833 342.396 82.9846C342.397 82.9895 342.397 82.9926 342.397 82.9913C342.397 82.9869 342.397 82.9688 342.397 82.9159C342.397 82.8125 342.398 82.587 342.399 82.0994C342.403 81.1246 342.411 79.1051 342.429 74.9267L339.429 74.9139ZM339.5 59.7251L339.429 74.9133L342.429 74.9273L342.5 59.7392L339.5 59.7251ZM340.833 61.686L341.865 60.9578L340.135 58.5065L339.103 59.2347L340.833 61.686ZM334.523 63.6942C336.511 63.6942 339.119 62.8669 340.819 61.6955L339.117 59.2252C337.898 60.065 335.88 60.6942 334.523 60.6942V63.6942ZM321.728 58.9316C326.087 61.8584 330.83 63.6942 334.523 63.6942V60.6942C331.666 60.6942 327.511 59.201 323.4 56.4409L321.728 58.9316ZM304.124 58.9804C308.973 54.9659 315.531 54.8313 321.736 58.9372L323.392 56.4353C316.286 51.7335 308.252 51.6682 302.211 56.6695L304.124 58.9804ZM302.371 60.4093L304.115 58.9876L302.219 56.6623L300.475 58.0841L302.371 60.4093ZM296.297 60.9878L301.493 60.7451L301.353 57.7483L296.157 57.9911L296.297 60.9878ZM295.492 61.017L296.281 60.9884L296.173 57.9904L295.383 58.019L295.492 61.017ZM295.52 61.0157L295.52 61.0157L295.354 58.0203L295.354 58.0203L295.52 61.0157ZM288.077 61.2322C289.57 61.2322 292.777 61.1155 295.491 61.0171L295.383 58.019C292.633 58.1188 289.5 58.2322 288.077 58.2322V61.2322ZM285.212 61.2667L288.095 61.232L288.059 58.2323L285.176 58.2669L285.212 61.2667ZM286.568 54.4339L283.898 59.0112L286.49 60.5225L289.159 55.9452L286.568 54.4339ZM295.838 41.5281C295.438 41.7603 294.993 42.0298 294.478 42.4933C293.978 42.9436 293.451 43.54 292.808 44.4068C291.535 46.1238 289.684 49.0685 286.566 54.4362L289.16 55.943C292.282 50.5687 294.057 47.7595 295.218 46.1941C295.792 45.4197 296.186 44.9928 296.485 44.723C296.77 44.4665 297.005 44.3192 297.343 44.1234L295.838 41.5281ZM300.866 39.9384C298.517 40.4233 297.128 40.7994 295.853 41.5198L297.329 44.1317C298.156 43.6642 299.13 43.3599 301.473 42.8765L300.866 39.9384ZM303.647 39.0589C303.267 39.3403 302.919 39.5163 300.867 39.9382L301.472 42.8767C303.5 42.4594 304.46 42.1893 305.432 41.4706L303.647 39.0589ZM303.908 38.7929C303.839 38.9253 303.831 38.9195 303.852 38.8966C303.857 38.8909 303.833 38.9213 303.645 39.0604L305.434 41.4691C305.643 41.3138 305.874 41.1349 306.082 40.9038C306.305 40.6556 306.448 40.4086 306.566 40.1826L303.908 38.7929ZM303.117 33.9607C304.364 36.2408 304.389 37.8813 303.91 38.7877L306.564 40.1877C307.738 37.962 307.187 35.1507 305.749 32.5208L303.117 33.9607ZM302.762 25.8049C302.256 27.7689 301.945 29.1842 301.984 30.4219C302.027 31.7665 302.473 32.7853 303.117 33.9609L305.748 32.5206C305.179 31.4799 305.003 30.9618 304.983 30.3268C304.959 29.5848 305.145 28.5775 305.667 26.554L302.762 25.8049ZM303.366 22.7693C303.307 23.486 303.151 24.2923 302.762 25.8062L305.668 26.5527C306.065 25.0042 306.276 23.995 306.356 23.0133L303.366 22.7693ZM303.712 19.9415C303.579 20.8242 303.429 22.0854 303.367 22.7529L306.354 23.0297C306.411 22.4191 306.554 21.2143 306.678 20.3875L303.712 19.9415ZM304.016 16.9579C304.031 17.4575 303.959 18.3077 303.712 19.9403L306.678 20.3887C306.924 18.7595 307.039 17.6676 307.015 16.8681L304.016 16.9579ZM303.437 14.6513C303.437 14.651 303.438 14.6536 303.441 14.6597C303.444 14.6657 303.447 14.6742 303.452 14.6852C303.461 14.7077 303.472 14.7372 303.485 14.7745C303.512 14.8495 303.544 14.944 303.578 15.0556C303.647 15.2789 303.72 15.5465 303.788 15.8203C303.857 16.0942 303.916 16.3614 303.958 16.5838C303.979 16.6951 303.995 16.7878 304.005 16.86C304.016 16.9389 304.017 16.9663 304.016 16.9564L307.015 16.8696C307.002 16.4093 306.842 15.666 306.7 15.0958C306.555 14.5146 306.349 13.7906 306.15 13.3705L303.437 14.6513Z" fill="#0070FE"/>
<defs>
<filter id="filter0_f_282_820" x="0.913794" y="0.644751" width="254.433" height="93.2447" filterUnits="userSpaceOnUse" color-interpolation-filters="sRGB">
<feFlood flood-opacity="0" result="BackgroundImageFix"/>
<feBlend mode="normal" in="SourceGraphic" in2="BackgroundImageFix" result="shape"/>
<feGaussianBlur stdDeviation="4.69667" result="effect1_foregroundBlur_282_820"/>
</filter>
<filter id="filter1_f_282_820" x="0.979712" y="1.36057" width="714.965" height="136.68" filterUnits="userSpaceOnUse" color-interpolation-filters="sRGB">
<feFlood flood-opacity="0" result="BackgroundImageFix"/>
<feBlend mode="normal" in="SourceGraphic" in2="BackgroundImageFix" result="shape"/>
<feGaussianBlur stdDeviation="4.69667" result="effect1_foregroundBlur_282_820"/>
</filter>
<filter id="filter2_f_282_820" x="213.5" y="5.50049" width="135.014" height="84.9995" filterUnits="userSpaceOnUse" color-interpolation-filters="sRGB">
<feFlood flood-opacity="0" result="BackgroundImageFix"/>
<feBlend mode="normal" in="SourceGraphic" in2="BackgroundImageFix" result="shape"/>
<feGaussianBlur stdDeviation="3" result="effect1_foregroundBlur_282_820"/>
</filter>
</defs>
</svg>
