<svg width="19" height="15" viewBox="0 0 19 15" fill="none" xmlns="http://www.w3.org/2000/svg">
<path fill-rule="evenodd" clip-rule="evenodd" d="M12.5937 0.00852671C12.016 0.0575781 11.3386 0.263835 10.8364 0.543581C9.72196 1.16434 8.95147 2.43909 8.94515 3.67257C8.94386 3.9236 8.9498 3.99035 8.98665 4.13834C9.06176 4.44005 9.0311 4.57929 8.87101 4.66366C8.78648 4.7082 8.56802 4.6987 8.23543 4.63601C8.07563 4.60587 7.88359 4.57172 7.80868 4.56011C6.43928 4.34778 5.0519 3.86209 3.88625 3.18697C2.92516 2.63032 2.12513 1.99171 1.24252 1.07663C0.99325 0.818176 0.94876 0.794307 0.872254 0.878025C0.753165 1.0084 0.560112 1.54356 0.4888 1.94103C0.434394 2.24436 0.429546 2.79286 0.47854 3.10427C0.611303 3.94816 0.981356 4.68608 1.55214 5.24514C1.65236 5.34331 1.78595 5.45783 1.84901 5.49965C1.96423 5.57607 2.03379 5.65957 2.03391 5.72169C2.03399 5.7532 2.02064 5.75457 1.80245 5.74533C1.5334 5.73397 1.39784 5.70438 0.93534 5.55614C0.755562 5.49851 0.56556 5.43916 0.513133 5.42424L0.417796 5.39714L0.417887 5.47166C0.418069 5.60304 0.48949 6.02769 0.552176 6.27007C0.878338 7.531 1.71289 8.39883 3.10539 8.92504C3.21026 8.96468 3.33079 9.00709 3.37324 9.01931C3.4157 9.03152 3.45042 9.0479 3.45042 9.05571C3.45042 9.06353 3.3922 9.08686 3.32107 9.10759C2.94345 9.21757 2.51715 9.25179 2.0703 9.20802C1.92548 9.19383 1.80476 9.18411 1.80203 9.18642C1.79929 9.18875 1.82579 9.25627 1.86091 9.33651C2.26338 10.2561 2.90484 10.9259 3.76821 11.3281C4.18228 11.521 4.69389 11.6722 5.18011 11.7453C5.29747 11.7629 5.39348 11.7827 5.39348 11.7892C5.39348 11.8042 5.03394 12.0555 4.82812 12.1843C3.86262 12.7884 2.76841 13.1857 1.63508 13.3437C1.24167 13.3985 0.921884 13.4232 0.459545 13.4343C-0.0685857 13.447 -0.0504989 13.4412 0.0698255 13.5589C0.125757 13.6136 0.871727 13.9844 1.22113 14.1313C2.66686 14.7387 4.21326 15.03 5.82023 14.9976C8.11144 14.9514 10.0632 14.3831 11.7947 13.258C12.7517 12.6361 13.6465 11.8156 14.367 10.8994C15.5969 9.3354 16.3855 7.44265 16.6416 5.43962C16.6861 5.09165 16.7059 4.842 16.7241 4.4007C16.752 3.7246 16.7757 3.67484 17.2475 3.30486C17.7082 2.94363 18.1238 2.50725 18.4578 2.03427C18.525 1.93904 18.576 1.86111 18.5711 1.86111C18.5662 1.86111 18.4888 1.88851 18.399 1.92199C18.0154 2.06517 17.5467 2.19868 17.1788 2.26961C16.9607 2.31165 16.5712 2.36281 16.5293 2.35491C16.5102 2.35131 16.57 2.2932 16.6986 2.19035C16.9671 1.9757 17.5091 1.44133 17.6362 1.26587C17.7719 1.07871 17.8754 0.878575 17.943 0.672673C18.0332 0.398007 18.0431 0.401683 17.6602 0.567023C17.0227 0.842258 16.5586 1.01163 16.1795 1.10737C16.0279 1.14566 15.9633 1.15331 15.8453 1.14696C15.6577 1.13687 15.5604 1.09194 15.3085 0.899087C14.6214 0.37302 13.9472 0.0898823 13.202 0.0144583C13.0383 -0.00211115 12.7518 -0.00491713 12.5937 0.00852671Z" fill="#CAE1FF"/>
</svg>
