<svg width="22" height="15" viewBox="0 0 22 15" fill="#CAE1FF" xmlns="http://www.w3.org/2000/svg">
<g id="Group 143726531">
<g id="Black">
<path id="Vector" d="M7.29386 0.0241203C4.96207 0.0999146 3.30797 0.220293 2.53665 0.376341C1.57362 0.572514 0.784465 1.26804 0.481288 2.18649C0.142443 3.19856 -0.0715643 6.30167 0.0220639 8.74938C0.129068 11.4156 0.338616 12.7486 0.762173 13.3862C1.26152 14.1397 1.89909 14.5097 2.96912 14.6658C4.8729 14.9422 9.72373 15.0715 13.781 14.9601C17.0802 14.8664 18.7076 14.7238 19.3986 14.4652C19.733 14.3403 20.2279 13.9792 20.4731 13.6805C20.9814 13.0607 21.1597 12.3251 21.347 10.1226C21.4228 9.23089 21.4228 5.66856 21.347 4.77241C21.24 3.47945 21.1107 2.67692 20.9324 2.13298C20.6871 1.39288 19.9649 0.697351 19.198 0.469969C18.614 0.291629 17.3032 0.157874 15.2745 0.0687046C13.888 0.00628567 8.78745 -0.0249233 7.29386 0.0241203ZM11.3332 5.9004C12.7778 6.72968 13.9905 7.42967 14.0306 7.45196C14.0886 7.48317 13.4733 7.85322 11.3912 9.05256C9.89761 9.90858 8.65369 10.6175 8.6314 10.6264C8.60019 10.6398 8.58682 9.54299 8.58682 7.49208C8.58682 4.83483 8.59573 4.34439 8.64924 4.36223C8.68044 4.3756 9.88869 5.06667 11.3332 5.9004Z" fill="#CAE1FF"/>
</g>
</g>
</svg>
